<mxfile host="Electron" modified="2024-05-07T01:50:09.672Z" agent="Mozilla/5.0 (Windows NT 10.0; Win64; x64) AppleWebKit/537.36 (KHTML, like Gecko) draw.io/24.2.5 Chrome/120.0.6099.109 Electron/28.1.0 Safari/537.36" etag="WpBBogS2dya8mG6BV-6a" version="24.2.5" type="device">
  <diagram name="第 1 页" id="ogwWU2leTlEK172iIz68">
    <mxGraphModel dx="1102" dy="810" grid="1" gridSize="10" guides="1" tooltips="1" connect="1" arrows="1" fold="1" page="1" pageScale="1" pageWidth="3300" pageHeight="4681" math="0" shadow="0">
      <root>
        <mxCell id="0" />
        <mxCell id="1" parent="0" />
        <mxCell id="HobCMAZj6ID0qoEqgHU3-1" value="" style="whiteSpace=wrap;html=1;aspect=fixed;" vertex="1" parent="1">
          <mxGeometry x="140" y="190" width="60" height="60" as="geometry" />
        </mxCell>
        <mxCell id="HobCMAZj6ID0qoEqgHU3-2" value="" style="whiteSpace=wrap;html=1;aspect=fixed;" vertex="1" parent="1">
          <mxGeometry x="200" y="190" width="60" height="60" as="geometry" />
        </mxCell>
        <mxCell id="HobCMAZj6ID0qoEqgHU3-3" value="" style="whiteSpace=wrap;html=1;aspect=fixed;" vertex="1" parent="1">
          <mxGeometry x="260" y="190" width="60" height="60" as="geometry" />
        </mxCell>
        <mxCell id="HobCMAZj6ID0qoEqgHU3-4" value="" style="whiteSpace=wrap;html=1;aspect=fixed;" vertex="1" parent="1">
          <mxGeometry x="320" y="190" width="60" height="60" as="geometry" />
        </mxCell>
        <mxCell id="HobCMAZj6ID0qoEqgHU3-5" value="" style="whiteSpace=wrap;html=1;aspect=fixed;" vertex="1" parent="1">
          <mxGeometry x="380" y="190" width="60" height="60" as="geometry" />
        </mxCell>
        <mxCell id="HobCMAZj6ID0qoEqgHU3-6" value="" style="whiteSpace=wrap;html=1;aspect=fixed;" vertex="1" parent="1">
          <mxGeometry x="440" y="190" width="60" height="60" as="geometry" />
        </mxCell>
        <mxCell id="HobCMAZj6ID0qoEqgHU3-7" value="" style="whiteSpace=wrap;html=1;aspect=fixed;" vertex="1" parent="1">
          <mxGeometry x="500" y="190" width="60" height="60" as="geometry" />
        </mxCell>
        <mxCell id="HobCMAZj6ID0qoEqgHU3-8" value="" style="whiteSpace=wrap;html=1;aspect=fixed;" vertex="1" parent="1">
          <mxGeometry x="130" y="319.5" width="60" height="60" as="geometry" />
        </mxCell>
        <mxCell id="HobCMAZj6ID0qoEqgHU3-9" value="" style="whiteSpace=wrap;html=1;aspect=fixed;" vertex="1" parent="1">
          <mxGeometry x="240" y="319.5" width="60" height="60" as="geometry" />
        </mxCell>
        <mxCell id="HobCMAZj6ID0qoEqgHU3-10" value="" style="whiteSpace=wrap;html=1;aspect=fixed;" vertex="1" parent="1">
          <mxGeometry x="350" y="319.5" width="60" height="60" as="geometry" />
        </mxCell>
        <mxCell id="HobCMAZj6ID0qoEqgHU3-11" value="" style="whiteSpace=wrap;html=1;aspect=fixed;" vertex="1" parent="1">
          <mxGeometry x="460" y="319.5" width="60" height="60" as="geometry" />
        </mxCell>
        <mxCell id="HobCMAZj6ID0qoEqgHU3-12" value="" style="whiteSpace=wrap;html=1;aspect=fixed;" vertex="1" parent="1">
          <mxGeometry x="570" y="319.5" width="60" height="60" as="geometry" />
        </mxCell>
        <mxCell id="HobCMAZj6ID0qoEqgHU3-13" value="" style="shape=flexArrow;endArrow=classic;html=1;rounded=0;exitX=1;exitY=0.5;exitDx=0;exitDy=0;entryX=0;entryY=0.5;entryDx=0;entryDy=0;" edge="1" parent="1" source="HobCMAZj6ID0qoEqgHU3-8" target="HobCMAZj6ID0qoEqgHU3-9">
          <mxGeometry width="50" height="50" relative="1" as="geometry">
            <mxPoint x="570" y="439.5" as="sourcePoint" />
            <mxPoint x="620" y="389.5" as="targetPoint" />
          </mxGeometry>
        </mxCell>
        <mxCell id="HobCMAZj6ID0qoEqgHU3-14" value="" style="shape=flexArrow;endArrow=classic;html=1;rounded=0;exitX=1;exitY=0.5;exitDx=0;exitDy=0;entryX=0;entryY=0.5;entryDx=0;entryDy=0;" edge="1" parent="1">
          <mxGeometry width="50" height="50" relative="1" as="geometry">
            <mxPoint x="300" y="349" as="sourcePoint" />
            <mxPoint x="350" y="349" as="targetPoint" />
          </mxGeometry>
        </mxCell>
        <mxCell id="HobCMAZj6ID0qoEqgHU3-15" value="" style="shape=flexArrow;endArrow=classic;html=1;rounded=0;exitX=1;exitY=0.5;exitDx=0;exitDy=0;entryX=0;entryY=0.5;entryDx=0;entryDy=0;" edge="1" parent="1">
          <mxGeometry width="50" height="50" relative="1" as="geometry">
            <mxPoint x="410" y="349" as="sourcePoint" />
            <mxPoint x="460" y="349" as="targetPoint" />
          </mxGeometry>
        </mxCell>
        <mxCell id="HobCMAZj6ID0qoEqgHU3-16" style="edgeStyle=orthogonalEdgeStyle;rounded=0;orthogonalLoop=1;jettySize=auto;html=1;exitX=0.5;exitY=1;exitDx=0;exitDy=0;" edge="1" parent="1" source="HobCMAZj6ID0qoEqgHU3-12" target="HobCMAZj6ID0qoEqgHU3-12">
          <mxGeometry relative="1" as="geometry" />
        </mxCell>
        <mxCell id="HobCMAZj6ID0qoEqgHU3-17" value="" style="shape=flexArrow;endArrow=classic;html=1;rounded=0;exitX=1;exitY=0.5;exitDx=0;exitDy=0;entryX=0;entryY=0.5;entryDx=0;entryDy=0;" edge="1" parent="1">
          <mxGeometry width="50" height="50" relative="1" as="geometry">
            <mxPoint x="520" y="349" as="sourcePoint" />
            <mxPoint x="570" y="349" as="targetPoint" />
          </mxGeometry>
        </mxCell>
        <mxCell id="HobCMAZj6ID0qoEqgHU3-18" value="&lt;font style=&quot;font-size: 24px;&quot;&gt;顺序表&lt;/font&gt;" style="text;html=1;align=center;verticalAlign=middle;resizable=0;points=[];autosize=1;strokeColor=none;fillColor=none;" vertex="1" parent="1">
          <mxGeometry x="20" y="200" width="100" height="40" as="geometry" />
        </mxCell>
        <mxCell id="HobCMAZj6ID0qoEqgHU3-19" value="&lt;font style=&quot;font-size: 24px;&quot;&gt;链表&lt;/font&gt;" style="text;html=1;align=center;verticalAlign=middle;resizable=0;points=[];autosize=1;strokeColor=none;fillColor=none;" vertex="1" parent="1">
          <mxGeometry x="35" y="329.5" width="70" height="40" as="geometry" />
        </mxCell>
      </root>
    </mxGraphModel>
  </diagram>
</mxfile>
